Sprint_08100001_forces_filt50Hz.mot
version=1
nRows=19
nColumns=19
inDegrees=yes
endheader
time	R_ground_force_vx	R_ground_force_vy	R_ground_force_vz	R_ground_force_px	R_ground_force_py	R_ground_force_pz	R_ground_torque_x	R_ground_torque_y	R_ground_torque_z	L_ground_force_vx	L_ground_force_vy	L_ground_force_vz	L_ground_force_px	L_ground_force_py	L_ground_force_pz	L_ground_torque_x	L_ground_torque_y	L_ground_torque_z	
1.463500	  0.000000	  0.000000	  0.000000	  0.281454	  0.000000	 -0.218054	  0.000000	  0.000000	  0.000000	  0.000000	  0.000000	  0.000000	  1.207821	  0.000000	 -0.393413	  0.000000	  0.000000	  0.000000
1.464000	  0.000000	  0.000000	  0.000000	  0.283831	  0.000000	 -0.217914	  0.000000	  0.000000	  0.000000	  0.000000	  0.000000	  0.000000	  1.204735	  0.000000	 -0.392829	  0.000000	  0.000000	  0.000000
1.464500	  0.000000	  0.000000	  0.000000	  0.286208	  0.000000	 -0.217773	  0.000000	  0.000000	  0.000000	  0.000000	  0.000000	  0.000000	  1.201650	  0.000000	 -0.392245	  0.000000	  0.000000	  0.000000
1.465000	  0.000000	  0.000000	  0.000000	  0.288585	  0.000000	 -0.217633	  0.000000	  0.000000	  0.000000	  0.000000	  0.000000	  0.000000	  1.198564	  0.000000	 -0.391661	  0.000000	  0.000000	  0.000000
1.465500	  0.000000	  0.000000	  0.000000	  0.291010	  0.000000	 -0.217407	  0.000000	  0.000000	  0.000000	  0.000000	  0.000000	  0.000000	  1.195419	  0.000000	 -0.390842	  0.000000	  0.000000	  0.000000
1.466000	  0.000000	  0.000000	  0.000000	  0.293435	  0.000000	 -0.217181	  0.000000	  0.000000	  0.000000	  0.000000	  0.000000	  0.000000	  1.192273	  0.000000	 -0.390024	  0.000000	  0.000000	  0.000000
1.466500	  0.000000	  0.000000	  0.000000	  0.295860	  0.000000	 -0.216955	  0.000000	  0.000000	  0.000000	  0.000000	  0.000000	  0.000000	  1.189128	  0.000000	 -0.389206	  0.000000	  0.000000	  0.000000
1.467000	  0.000000	  0.000000	  0.000000	  0.298285	  0.000000	 -0.216729	  0.000000	  0.000000	  0.000000	  0.000000	  0.000000	  0.000000	  1.185983	  0.000000	 -0.388388	  0.000000	  0.000000	  0.000000
1.467500	  0.000000	  0.000000	  0.000000	  0.300710	  0.000000	 -0.216503	  0.000000	  0.000000	  0.000000	  0.000000	  0.000000	  0.000000	  1.182837	  0.000000	 -0.387570	  0.000000	  0.000000	  0.000000
1.468000	  0.000000	  0.000000	  0.000000	  0.303135	  0.000000	 -0.216276	  0.000000	  0.000000	  0.000000	-10.344299	 15.507050	-40.231611	  1.160811	 -0.000000	 -0.397303	  0.000000	-19.829424	  0.000000
1.468500	  0.000000	  0.000000	  0.000000	  0.305560	  0.000000	 -0.216050	  0.000000	  0.000000	  0.000000	-21.909254	 33.893858	-47.184092	  1.138785	 -0.000000	 -0.407037	  0.000000	-25.094413	  0.000000
1.469000	  0.000000	  0.000000	  0.000000	  0.307985	  0.000000	 -0.215824	  0.000000	  0.000000	  0.000000	-34.665991	 55.915952	-54.048571	  1.116759	 -0.000000	 -0.416771	  0.000000	-30.183851	  0.000000
1.469500	  0.000000	  0.000000	  0.000000	  0.310410	  0.000000	 -0.215598	  0.000000	  0.000000	  0.000000	-48.648783	 81.867901	-60.693158	  1.094733	 -0.000000	 -0.426505	  0.000000	-34.975125	  0.000000
1.470000	  0.000000	  0.000000	  0.000000	  0.312835	  0.000000	 -0.215372	  0.000000	  0.000000	  0.000000	-63.878127	112.008744	-66.973580	  1.072707	  0.000000	 -0.436239	  0.000000	-39.368332	  0.000000
1.470500	  0.000000	  0.000000	  0.000000	  0.315285	  0.000000	 -0.215203	  0.000000	  0.000000	  0.000000	-80.359192	146.545981	-72.732526	  1.050681	  0.000000	 -0.445972	  0.000000	-43.276441	  0.000000
1.471000	  0.000000	  0.000000	  0.000000	  0.317735	  0.000000	 -0.215033	  0.000000	  0.000000	  0.000000	-98.081130	185.617013	-77.799986	  1.028655	  0.000000	 -0.455706	  0.000000	-46.620035	  0.000000
1.471500	  0.000000	  0.000000	  0.000000	  0.320185	  0.000000	 -0.214864	  0.000000	  0.000000	  0.000000	-117.017339	229.267894	-81.994533	  1.006628	  0.000000	 -0.465440	  0.000000	-49.324837	  0.000000
1.472000	  0.000000	  0.000000	  0.000000	  0.322635	  0.000000	 -0.214694	  0.000000	  0.000000	  0.000000	-137.126373	277.429340	-85.125252	  0.984602	  0.000000	 -0.475174	  0.000000	-51.321317	  0.000000
1.472500	  0.000000	  0.000000	  0.000000	  0.325085	  0.000000	 -0.214525	  0.000000	  0.000000	  0.000000	-158.353077	329.889951	-86.994507	  0.987007	  0.000000	 -0.470897	  0.000000	-52.545745	  0.000000
